<svg xmlns="http://www.w3.org/2000/svg" xmlns:svg="http://www.w3.org/2000/svg" xmlns:xlink="http://www.w3.org/1999/xlink" id="svg64" width="24" height="24" version="1.1"><metadata id="metadata70"/><linearGradient id="a" x1="1.729" x2="7" y1="15.458" y2="15.458" gradientTransform="matrix(0.65196,0,0,0.6516,1.174,-6.025)" gradientUnits="userSpaceOnUse" xlink:href="#b"/><linearGradient id="b"><stop id="stop11" offset="0" stop-color="#6e97c4"/><stop id="stop13" offset="1" stop-color="#aec7e2"/></linearGradient><linearGradient id="c" x1="7.373" x2="7.449" y1="10" y2="15" gradientTransform="matrix(.65196 0 0 .6516 1.174 1.975)" gradientUnits="userSpaceOnUse" xlink:href="#b"/><linearGradient id="d" x1="4.53" x2="4.458" y1="22.364" y2="25.133" gradientTransform="matrix(3.8476185,0,0,3.28136,-4.436498,-70.386576)" gradientUnits="userSpaceOnUse"><stop id="stop17" offset="0" stop-color="#eee"/><stop id="stop19" offset="1" stop-color="#aec7e2"/></linearGradient><path id="path22" fill="url(#c)" d="m2.478 8.49c-.87 9.558-.435 4.779 0 0z"/><g id="g62" transform="matrix(.69230769 0 0 .69230769 1.846154 1.846154)"><rect id="rect52" width="13" height="13" x="19" y="19" fill="#5a8c5a" rx="2.615"/><g id="g60" fill-rule="evenodd"><path id="path54" fill="#fff" stroke="#fff" stroke-linecap="round" stroke-linejoin="round" stroke-width="2.6" d="m21.6 25.499999h7.8"/><path id="path56" fill="#fff" stroke="#fff" stroke-linecap="round" stroke-linejoin="round" stroke-width="2.6" d="m25.5 29.399999v-7.799999"/><path id="path58" fill="#fcffff" d="m20.3 25.499999h10.4s0 0 0-2.6c0-2.599999-.65-2.599999-5.2-2.599999s-5.2 0-5.2 2.599999z" opacity=".3"/></g></g><path id="path74" d="m 11.29625,10.264633 a 1.3486331,3.868824 0 0 1 -0.01109,0.495099" style="opacity:1;fill:#e16c2e;fill-opacity:1;fill-rule:nonzero;stroke:#00c5e2;stroke-width:11.7555;stroke-linecap:round;stroke-linejoin:bevel"/></svg>